# xmcd
#
# Track frame offsets:
# 150
# 14703
# 26788
# 47190
# 66458
# 81128
# 101433
# 115400
# 125153
# 147395
# 159533
# 172385
# 186918
# 206628
# 222460
# 236850
# 251908
# 268060
# 278268
# 292953
# 308103
#
# Disc length: 4428 seconds
#
#
# Revision: 2
# Processed by: cddbd v1.5.1PL2 Copyright (c) Steve Scherf et al.
# Submitted via: FreeRIP 2.944 
#
DISCID=56114a15
DTITLE=John Prine - The John Prine Anthology: Great Days [CD1]
DYEAR=1900
DGENRE=Folk
TTITLE0=Illegal Smile
TTITLE1=Spanish Pipedream
TTITLE2=Hello in There
TTITLE3=Sam Stone
TTITLE4=Paradise
TTITLE5=Donald andf Lydia
TTITLE6=The Late John Garfield Blues
TTITLE7=Yes I Guess They Oughta Name a Drink After You
TTITLE8=The Great Compromise
TTITLE9=Sweet Revenge
TTITLE10=Please Don't Bury Me
TTITLE11=Christmas in Prison
TTITLE12=Dear Abby
TTITLE13=Blue Umbrella
TTITLE14=Common Sense
TTITLE15=Come Back to Us Barbara Lewis Hare Krishnal Beauregard
TTITLE16=Saddle in the Rain
TTITLE17=He was in Heaven Before he Died
TTITLE18=Fish and Whistle
TTITLE19=That's the Way that the World Goes 'Round
TTITLE20=Bruised Orange (Chain of Sorrow)
EXTD=
EXTT0=
EXTT1=
EXTT2=
EXTT3=
EXTT4=
EXTT5=
EXTT6=
EXTT7=
EXTT8=
EXTT9=
EXTT10=
EXTT11=
EXTT12=
EXTT13=
EXTT14=
EXTT15=
EXTT16=
EXTT17=
EXTT18=
EXTT19=
EXTT20=
PLAYORDER=
